<svg class="animated" id="freepik_stories-app-development" xmlns="http://www.w3.org/2000/svg" viewBox="0 0 500 500" version="1.1" xmlns:xlink="http://www.w3.org/1999/xlink" xmlns:svgjs="http://svgjs.com/svgjs"><style>svg#freepik_stories-app-development:not(.animated) .animable {opacity: 0;}svg#freepik_stories-app-development.animated #freepik--background-complete--inject-4 {animation: 1s 1 forwards cubic-bezier(.36,-0.01,.5,1.38) slideDown;animation-delay: 0s;}svg#freepik_stories-app-development.animated #freepik--Screen--inject-4 {animation: 1.2s 1 forwards cubic-bezier(.36,-0.01,.5,1.38) slideDown,1.5s Infinite  linear floating;animation-delay: 0s,1.2s;}svg#freepik_stories-app-development.animated #freepik--character-2--inject-4 {animation: 1s 1 forwards cubic-bezier(.36,-0.01,.5,1.38) fadeIn;animation-delay: 0s;}svg#freepik_stories-app-development.animated #freepik--character-1--inject-4 {animation: 1s 1 forwards cubic-bezier(.36,-0.01,.5,1.38) fadeIn,1.5s Infinite  linear floating;animation-delay: 0s,2s;}            @keyframes slideDown {                0% {                    opacity: 0;                    transform: translateY(-30px);                }                100% {                    opacity: 1;                    transform: translateY(0);                }            }                    @keyframes floating {                0% {                    opacity: 1;                    transform: translateY(0px);                }                50% {                    transform: translateY(-10px);                }                100% {                    opacity: 1;                    transform: translateY(0px);                }            }                    @keyframes fadeIn {                0% {                    opacity: 0;                }                100% {                    opacity: 1;                }            }        </style><g id="freepik--background-complete--inject-4" class="animable" style="transform-origin: 250px 228.23px;"><rect x="416.78" y="398.49" width="33.12" height="0.25" style="fill: rgb(235, 235, 235); transform-origin: 433.34px 398.615px;" id="el50b0nglfcqw" class="animable"></rect><rect x="322.53" y="401.21" width="8.69" height="0.25" style="fill: rgb(235, 235, 235); transform-origin: 326.875px 401.335px;" id="el2p6cv68nzmu" class="animable"></rect><rect x="396.59" y="389.21" width="19.19" height="0.25" style="fill: rgb(235, 235, 235); transform-origin: 406.185px 389.335px;" id="el328lyvrouuk" class="animable"></rect><rect x="52.46" y="390.89" width="43.19" height="0.25" style="fill: rgb(235, 235, 235); transform-origin: 74.055px 391.015px;" id="eliqjvbbtzpkn" class="animable"></rect><rect x="104.56" y="390.89" width="6.33" height="0.25" style="fill: rgb(235, 235, 235); transform-origin: 107.725px 391.015px;" id="elo8u73mdevp" class="animable"></rect><rect x="131.47" y="395.11" width="93.68" height="0.25" style="fill: rgb(235, 235, 235); transform-origin: 178.31px 395.235px;" id="elmpv5lquffg9" class="animable"></rect><path d="M237,337.8H43.92a5.71,5.71,0,0,1-5.71-5.71V60.66A5.71,5.71,0,0,1,43.92,55H237a5.71,5.71,0,0,1,5.71,5.71V332.09A5.71,5.71,0,0,1,237,337.8ZM43.92,55.2a5.47,5.47,0,0,0-5.46,5.46V332.09a5.47,5.47,0,0,0,5.46,5.46H237a5.47,5.47,0,0,0,5.46-5.46V60.66A5.47,5.47,0,0,0,237,55.2Z" style="fill: rgb(235, 235, 235); transform-origin: 140.46px 196.4px;" id="ellml9ej916f" class="animable"></path><path d="M453.31,337.8H260.21a5.72,5.72,0,0,1-5.71-5.71V60.66A5.72,5.72,0,0,1,260.21,55h193.1A5.71,5.71,0,0,1,459,60.66V332.09A5.71,5.71,0,0,1,453.31,337.8ZM260.21,55.2a5.47,5.47,0,0,0-5.46,5.46V332.09a5.47,5.47,0,0,0,5.46,5.46h193.1a5.47,5.47,0,0,0,5.46-5.46V60.66a5.47,5.47,0,0,0-5.46-5.46Z" style="fill: rgb(235, 235, 235); transform-origin: 356.75px 196.4px;" id="elly2bl64ir98" class="animable"></path><rect y="382.4" width="500" height="0.25" style="fill: rgb(235, 235, 235); transform-origin: 250px 382.525px;" id="eleo2usl666o" class="animable"></rect><rect x="291.96" y="94.67" width="124.79" height="132.89" style="fill: rgb(235, 235, 235); transform-origin: 354.355px 161.115px;" id="eldb8h8ufoh5u" class="animable"></rect><rect x="299.46" y="102.17" width="109.79" height="117.89" style="fill: rgb(245, 245, 245); transform-origin: 354.355px 161.115px;" id="elpy4pk1m2j8h" class="animable"></rect><polygon points="342.55 220.06 375.55 220.06 406.53 102.17 373.53 102.17 342.55 220.06" style="fill: rgb(250, 250, 250); transform-origin: 374.54px 161.115px;" id="elec1omfmkpo" class="animable"></polygon><polygon points="358.2 102.17 327.22 220.06 335.22 220.06 366.2 102.17 358.2 102.17" style="fill: rgb(250, 250, 250); transform-origin: 346.71px 161.115px;" id="eltiocr5g1w5" class="animable"></polygon><polygon points="418.32 100.92 290.38 100.92 287.68 94.62 421.02 94.62 418.32 100.92" style="fill: rgb(245, 245, 245); transform-origin: 354.35px 97.77px;" id="elbvu1cpki3vv" class="animable"></polygon><polygon points="418.32 104.57 290.38 104.57 287.68 98.27 421.02 98.27 418.32 104.57" style="fill: rgb(240, 240, 240); transform-origin: 354.35px 101.42px;" id="elyxwltb8c8it" class="animable"></polygon><polygon points="418.32 108.22 290.38 108.22 287.68 101.92 421.02 101.92 418.32 108.22" style="fill: rgb(230, 230, 230); transform-origin: 354.35px 105.07px;" id="elulh7cpstw6n" class="animable"></polygon><polygon points="418.32 111.87 290.38 111.87 287.68 105.57 421.02 105.57 418.32 111.87" style="fill: rgb(224, 224, 224); transform-origin: 354.35px 108.72px;" id="elxxivas7365d" class="animable"></polygon><rect x="283.03" y="86.73" width="142.65" height="8.4" style="fill: rgb(224, 224, 224); transform-origin: 354.355px 90.93px;" id="el4a1km25h8qr" class="animable"></rect><path d="M284.49,171.29h0a1.45,1.45,0,0,1-1.45-1.45v-49a1.45,1.45,0,0,1,1.45-1.45h0a1.45,1.45,0,0,1,1.45,1.45v49A1.45,1.45,0,0,1,284.49,171.29Z" style="fill: rgb(224, 224, 224); transform-origin: 284.49px 145.34px;" id="elbmahryhpon8" class="animable"></path><rect x="283.96" y="93.45" width="1.05" height="29.1" style="fill: rgb(224, 224, 224); transform-origin: 284.485px 108px;" id="elmy37peej76m" class="animable"></rect><rect x="88.72" y="92.1" width="1.8" height="140.37" style="fill: rgb(224, 224, 224); transform-origin: 89.62px 162.285px;" id="eluotqsfuc4k" class="animable"></rect><rect x="200.77" y="92.1" width="1.8" height="140.37" style="fill: rgb(224, 224, 224); transform-origin: 201.67px 162.285px;" id="eli0mgi8dxio8" class="animable"></rect><polygon points="209.63 100.92 81.67 100.92 78.97 94.62 212.32 94.62 209.63 100.92" style="fill: rgb(245, 245, 245); transform-origin: 145.645px 97.77px;" id="eld4vd7qsfu9t" class="animable"></polygon><polygon points="209.63 109.57 81.67 109.57 78.97 103.27 212.32 103.27 209.63 109.57" style="fill: rgb(245, 245, 245); transform-origin: 145.645px 106.42px;" id="elmenukmr6uo8" class="animable"></polygon><polygon points="209.63 118.22 81.67 118.22 78.97 111.92 212.32 111.92 209.63 118.22" style="fill: rgb(245, 245, 245); transform-origin: 145.645px 115.07px;" id="el90mgevu2ywi" class="animable"></polygon><polygon points="209.63 126.87 81.67 126.87 78.97 120.57 212.32 120.57 209.63 126.87" style="fill: rgb(245, 245, 245); transform-origin: 145.645px 123.72px;" id="elabibk8y0sdv" class="animable"></polygon><polygon points="209.63 135.52 81.67 135.52 78.97 129.22 212.32 129.22 209.63 135.52" style="fill: rgb(245, 245, 245); transform-origin: 145.645px 132.37px;" id="elujfpn1qhv4" class="animable"></polygon><polygon points="209.63 144.17 81.67 144.17 78.97 137.87 212.32 137.87 209.63 144.17" style="fill: rgb(245, 245, 245); transform-origin: 145.645px 141.02px;" id="elf98rfwfh7a" class="animable"></polygon><polygon points="209.63 152.82 81.67 152.82 78.97 146.52 212.32 146.52 209.63 152.82" style="fill: rgb(245, 245, 245); transform-origin: 145.645px 149.67px;" id="elvy1yc1kds8k" class="animable"></polygon><polygon points="209.63 161.47 81.67 161.47 78.97 155.17 212.32 155.17 209.63 161.47" style="fill: rgb(245, 245, 245); transform-origin: 145.645px 158.32px;" id="elw4dzt5sramd" class="animable"></polygon><polygon points="209.63 170.12 81.67 170.12 78.97 163.82 212.32 163.82 209.63 170.12" style="fill: rgb(245, 245, 245); transform-origin: 145.645px 166.97px;" id="elql4u7s4mo4i" class="animable"></polygon><polygon points="209.63 178.77 81.67 178.77 78.97 172.47 212.32 172.47 209.63 178.77" style="fill: rgb(245, 245, 245); transform-origin: 145.645px 175.62px;" id="elib2kydxyid" class="animable"></polygon><polygon points="209.63 187.42 81.67 187.42 78.97 181.12 212.32 181.12 209.63 187.42" style="fill: rgb(245, 245, 245); transform-origin: 145.645px 184.27px;" id="eluo8rolfny6" class="animable"></polygon><polygon points="209.63 196.06 81.67 196.06 78.97 189.76 212.32 189.76 209.63 196.06" style="fill: rgb(245, 245, 245); transform-origin: 145.645px 192.91px;" id="elbswm3tu9qh" class="animable"></polygon><polygon points="209.63 204.72 81.67 204.72 78.97 198.41 212.32 198.41 209.63 204.72" style="fill: rgb(245, 245, 245); transform-origin: 145.645px 201.565px;" id="elxt7ujc0n69d" class="animable"></polygon><polygon points="209.63 213.36 81.67 213.36 78.97 207.06 212.32 207.06 209.63 213.36" style="fill: rgb(245, 245, 245); transform-origin: 145.645px 210.21px;" id="elmbhy577roso" class="animable"></polygon><polygon points="209.63 222.01 81.67 222.01 78.97 215.71 212.32 215.71 209.63 222.01" style="fill: rgb(245, 245, 245); transform-origin: 145.645px 218.86px;" id="elpl142ggz0fh" class="animable"></polygon><polygon points="209.63 230.66 81.67 230.66 78.97 224.36 212.32 224.36 209.63 230.66" style="fill: rgb(245, 245, 245); transform-origin: 145.645px 227.51px;" id="elnvw7u1wl41n" class="animable"></polygon><rect x="78.97" y="230.66" width="133.35" height="3.6" style="fill: rgb(224, 224, 224); transform-origin: 145.645px 232.46px;" id="elwoor6shi09l" class="animable"></rect><rect x="74.32" y="86.73" width="142.65" height="8.4" style="fill: rgb(224, 224, 224); transform-origin: 145.645px 90.93px;" id="el13aehgcbq57" class="animable"></rect><path d="M75.79,171.29h0a1.45,1.45,0,0,1-1.45-1.45v-49a1.45,1.45,0,0,1,1.45-1.45h0a1.45,1.45,0,0,1,1.45,1.45v49A1.45,1.45,0,0,1,75.79,171.29Z" style="fill: rgb(224, 224, 224); transform-origin: 75.79px 145.34px;" id="el40901m4uhyi" class="animable"></path><rect x="75.26" y="93.45" width="1.05" height="29.1" style="fill: rgb(224, 224, 224); transform-origin: 75.785px 108px;" id="elc8632g3b6nt" class="animable"></rect><path d="M89.32,322.38c-.12.13.55,1.07-2.19.66-6.75-1-18.5-3.75-21.77-10.69-4.67-9.91,9.81-6.29,9.31-11.36s-17-4.19-18.73-11.62,9.43-3.89,9.58-7.51-12.73-1.38-15.29-9.4,7.18-2.11,6.06-5.45-12-18.41-6.09-20.16S66.12,260.57,70,262.76s7.28-10.44,11.88-5.1-2.7,24,3.16,27.61c4.37,2.7,3.14-4.73,8.9-3.34C101.73,283.81,99.1,311.44,89.32,322.38Z" style="fill: rgb(235, 235, 235); transform-origin: 73.4739px 284.928px;" id="elyz917zt2btf" class="animable"></path><path d="M68.49,281.9a23.39,23.39,0,0,1,5.83,1.19,45.59,45.59,0,0,0-4.15-5.33.5.5,0,0,1,.71-.7,58.8,58.8,0,0,1,8.31,12.06c2.13-12.79-3.23-24-3.29-24.08a.38.38,0,0,1,.68-.33c.06.12,5.77,12.05,3.18,25.47.69,1.31,1.39,2.72,2.07,4.23a94.8,94.8,0,0,1,5.71,16.72,34.44,34.44,0,0,0,4-15.27.37.37,0,0,1,.38-.36.38.38,0,0,1,.37.39,34.57,34.57,0,0,1-4.47,16.29,116.42,116.42,0,0,1,2.53,34.45.5.5,0,0,1-.53.47h-.06a.49.49,0,0,1-.4-.53c1.23-18-1.45-32.41-5.17-43.35a13.74,13.74,0,0,0-8-4.55.39.39,0,0,1-.31-.43.37.37,0,0,1,.42-.32,14.19,14.19,0,0,1,7.28,3.62,83.6,83.6,0,0,0-8.52-17.33,20.77,20.77,0,0,0-6.63-1.56.38.38,0,0,1-.35-.4A.37.37,0,0,1,68.49,281.9Z" style="fill: rgb(245, 245, 245); transform-origin: 80.1848px 305.816px;" id="elcn0c3d9ardu" class="animable"></path><path d="M98,326.21c5.61.1,15.19-5.11,19-10.17s-6.92-2-5.82-6,14.34-1.05,16.78-6.84-7.1-4.45-6.72-7.41,10.27-2.35,13.44-8.5-5.52-2.7-4.16-5.25,12.27-13.27,7.71-15.5-14.79,8.93-18.21,10.18-4.23-6.47-8.69-2.78-1.12,19.81-6.36,21.94c-3.91,1.59-2.25-5.8-6.75-3.93C90.26,295.22,95.69,326.16,98,326.21Z" style="fill: rgb(224, 224, 224); transform-origin: 116.687px 296.229px;" id="el8o9z6qca999" class="animable"></path><g id="elxha6axx7z2f"><g style="opacity: 0.3; transform-origin: 116.687px 296.229px;" class="animable"><path d="M98,326.21c5.61.1,15.19-5.11,19-10.17s-6.92-2-5.82-6,14.34-1.05,16.78-6.84-7.1-4.45-6.72-7.41,10.27-2.35,13.44-8.5-5.52-2.7-4.16-5.25,12.27-13.27,7.71-15.5-14.79,8.93-18.21,10.18-4.23-6.47-8.69-2.78-1.12,19.81-6.36,21.94c-3.91,1.59-2.25-5.8-6.75-3.93C90.26,295.22,95.69,326.16,98,326.21Z" style="fill: rgb(224, 224, 224); transform-origin: 116.687px 296.229px;" id="elxzqzm6o5cyt" class="animable"></path></g></g><path d="M99.82,319.48a.38.38,0,0,1-.2-.17,29.47,29.47,0,0,1-2.52-15,.38.38,0,1,1,.75.06,30,30,0,0,0,2.27,14.28,115.29,115.29,0,0,1,8.54-18.06c-1-12,5.18-21.9,5.24-22a.37.37,0,1,1,.63.4,39,39,0,0,0-5.19,20.44,104.79,104.79,0,0,1,14.34-19.17.5.5,0,1,1,.7.71,97.48,97.48,0,0,0-10.95,13.84A29.62,29.62,0,0,1,124,292.91a.38.38,0,0,1,.36.39.37.37,0,0,1-.37.36h0a28.81,28.81,0,0,0-11.31,2.21,120,120,0,0,0-6.1,10.49,12.67,12.67,0,0,1,10.46-1.84.38.38,0,0,1,.27.46.37.37,0,0,1-.46.26,12.1,12.1,0,0,0-11.06,2.68A101.71,101.71,0,0,0,95,349a.5.5,0,0,1-.5.48h0A.5.5,0,0,1,94,349,98.68,98.68,0,0,1,99.82,319.48Z" style="fill: rgb(245, 245, 245); transform-origin: 109.279px 313.948px;" id="el99iks7gxvt8" class="animable"></path><path d="M82.19,381c-5.35-10.06-8.87-24.6-8.87-31a17.8,17.8,0,0,1,6.54-13.61h27.41A17.8,17.8,0,0,1,113.81,350c0,6.38-3.52,20.92-8.87,31Z" style="fill: rgb(240, 240, 240); transform-origin: 93.565px 358.695px;" id="elxs6b621fk2o" class="animable"></path></g><g id="freepik--Shadow--inject-4" class="animable" style="transform-origin: 245.18px 412.39px;"><ellipse id="freepik--path--inject-4" cx="245.18" cy="412.39" rx="193.89" ry="11.32" style="fill: rgb(245, 245, 245); transform-origin: 245.18px 412.39px;" class="animable"></ellipse></g><g id="freepik--Screen--inject-4" class="animable" style="transform-origin: 235.604px 244.395px;"><path d="M292.65,119.64h-24a3.5,3.5,0,0,0-3.34,2.73l-.16.75a8.5,8.5,0,0,1-8.14,6.65h-22.8a6.85,6.85,0,0,1-7-6.65l0-.75a2.8,2.8,0,0,0-2.86-2.73h-24a16.12,16.12,0,0,0-15.75,14.48L165.34,354.66a13.06,13.06,0,0,0,13.21,14.49h92.27a16.13,16.13,0,0,0,15.75-14.49l19.3-220.54A13.06,13.06,0,0,0,292.65,119.64Z" style="fill: rgb(64, 123, 255); transform-origin: 235.604px 244.395px;" id="eln3564fwh0mm" class="animable"></path><g id="elfstn3dcerzf"><path d="M292.65,119.64h-24a3.5,3.5,0,0,0-3.34,2.73l-.16.75a8.5,8.5,0,0,1-8.14,6.65h-22.8a6.85,6.85,0,0,1-7-6.65l0-.75a2.8,2.8,0,0,0-2.86-2.73h-24a16.12,16.12,0,0,0-15.75,14.48L165.34,354.66a13.06,13.06,0,0,0,13.21,14.49h92.27a16.13,16.13,0,0,0,15.75-14.49l19.3-220.54A13.06,13.06,0,0,0,292.65,119.64Z" style="fill: rgb(255, 255, 255); opacity: 0.7; transform-origin: 235.604px 244.395px;" class="animable"></path></g><path d="M283.3,221.08h-49a2.91,2.91,0,0,1-2.94-3.22l3.69-42.19a3.58,3.58,0,0,1,3.5-3.22h49a2.9,2.9,0,0,1,2.94,3.22l-3.69,42.19A3.59,3.59,0,0,1,283.3,221.08Z" style="fill: rgb(255, 255, 255); transform-origin: 260.926px 196.765px;" id="elanxnxlyuyp" class="animable"></path><path d="M267,353H185a7.21,7.21,0,0,1-7.3-8h0a8.91,8.91,0,0,1,8.7-8h82a7.21,7.21,0,0,1,7.3,8h0A8.9,8.9,0,0,1,267,353Z" style="fill: rgb(255, 255, 255); transform-origin: 226.7px 345px;" id="el254frvp3m1b" class="animable"></path><path d="M273.53,160.85H198.3a4,4,0,0,1-4.09-4.49l.61-7a5,5,0,0,1,4.88-4.48h75.23a4.05,4.05,0,0,1,4.1,4.48l-.62,7A5,5,0,0,1,273.53,160.85Z" style="fill: rgb(255, 255, 255); transform-origin: 236.616px 152.866px;" id="elabi7g8g81ct" class="animable"></path><path d="M288.83,149.12a1.39,1.39,0,0,1-1.36,1.25,1.13,1.13,0,0,1-1.14-1.25,1.38,1.38,0,0,1,1.36-1.24A1.12,1.12,0,0,1,288.83,149.12Z" style="fill: rgb(255, 255, 255); transform-origin: 287.58px 149.125px;" id="elr8o46f9imod" class="animable"></path><path d="M288.5,152.86a1.38,1.38,0,0,1-1.35,1.25,1.13,1.13,0,0,1-1.14-1.25,1.38,1.38,0,0,1,1.35-1.25A1.13,1.13,0,0,1,288.5,152.86Z" style="fill: rgb(255, 255, 255); transform-origin: 287.255px 152.86px;" id="elhzatkjkh415" class="animable"></path><path d="M288.18,156.59a1.39,1.39,0,0,1-1.36,1.25,1.13,1.13,0,0,1-1.14-1.25,1.39,1.39,0,0,1,1.36-1.25A1.13,1.13,0,0,1,288.18,156.59Z" style="fill: rgb(255, 255, 255); transform-origin: 286.93px 156.59px;" id="elt1f57j9vb0o" class="animable"></path><path d="M277.21,290.68H185.68a2.9,2.9,0,0,1-2.94-3.22L187,239.31a3.58,3.58,0,0,1,3.5-3.22H282a2.9,2.9,0,0,1,2.93,3.22l-4.21,48.15A3.58,3.58,0,0,1,277.21,290.68Z" style="fill: rgb(255, 255, 255); transform-origin: 233.835px 263.385px;" id="elct7bjc0tj06" class="animable"></path><path d="M210.86,300.74h-28.5a.7.7,0,0,1-.71-.78h0a.87.87,0,0,1,.85-.79H211a.7.7,0,0,1,.71.79h0A.87.87,0,0,1,210.86,300.74Z" style="fill: rgb(255, 255, 255); transform-origin: 196.681px 299.955px;" id="elbye0v2kswqv" class="animable"></path><path d="M246.48,300.74H215.89a.7.7,0,0,1-.72-.78h0a.87.87,0,0,1,.85-.79h30.6a.7.7,0,0,1,.71.79h0A.87.87,0,0,1,246.48,300.74Z" style="fill: rgb(255, 255, 255); transform-origin: 231.251px 299.955px;" id="ele3gn96m9io6" class="animable"></path><path d="M201,307.69H181.76a.71.71,0,0,1-.72-.79h0a.88.88,0,0,1,.85-.79h19.28a.72.72,0,0,1,.72.79h0A.88.88,0,0,1,201,307.69Z" style="fill: rgb(255, 255, 255); transform-origin: 191.464px 306.9px;" id="elo4senk7kndt" class="animable"></path><path d="M237.64,307.69H206.06a.71.71,0,0,1-.72-.79h0a.88.88,0,0,1,.86-.79h31.57a.71.71,0,0,1,.72.79h0A.87.87,0,0,1,237.64,307.69Z" style="fill: rgb(255, 255, 255); transform-origin: 221.915px 306.9px;" id="elfb51jm3hy28" class="animable"></path><path d="M232.54,314.63H181.15a.7.7,0,0,1-.72-.78h0a.88.88,0,0,1,.86-.79h51.39a.72.72,0,0,1,.72.79h0A.88.88,0,0,1,232.54,314.63Z" style="fill: rgb(255, 255, 255); transform-origin: 206.914px 313.845px;" id="el24x36w57uyr" class="animable"></path><path d="M241,314.63h-3.39a.7.7,0,0,1-.72-.78h0a.87.87,0,0,1,.85-.79h3.4a.7.7,0,0,1,.71.79h0A.87.87,0,0,1,241,314.63Z" style="fill: rgb(255, 255, 255); transform-origin: 239.371px 313.845px;" id="el7kw7rjzf2iq" class="animable"></path><path d="M204.53,321.58h-24a.72.72,0,0,1-.72-.79h0a.88.88,0,0,1,.86-.79h24a.71.71,0,0,1,.72.79h0A.88.88,0,0,1,204.53,321.58Z" style="fill: rgb(255, 255, 255); transform-origin: 192.601px 320.79px;" id="el5j8yo5kvk0d" class="animable"></path><path d="M239.44,321.58H209.56a.72.72,0,0,1-.72-.79h0a.88.88,0,0,1,.86-.79h29.87a.71.71,0,0,1,.72.79h0A.88.88,0,0,1,239.44,321.58Z" style="fill: rgb(255, 255, 255); transform-origin: 224.566px 320.79px;" id="elqyac14nlk9" class="animable"></path><path d="M209.48,328.52H179.93a.7.7,0,0,1-.71-.79h0a.87.87,0,0,1,.85-.78h29.54a.7.7,0,0,1,.72.78h0A.87.87,0,0,1,209.48,328.52Z" style="fill: rgb(255, 255, 255); transform-origin: 194.774px 327.735px;" id="ellteqgho4t2" class="animable"></path><path d="M238.3,328.52H214.5a.7.7,0,0,1-.71-.79h0a.87.87,0,0,1,.85-.78h23.8a.7.7,0,0,1,.72.78h0A.88.88,0,0,1,238.3,328.52Z" style="fill: rgb(255, 255, 255); transform-origin: 226.474px 327.735px;" id="elul3fasg4s4" class="animable"></path><path d="M282.14,217.08a1,1,0,0,1-1.42.09l-40.93-39.06a1,1,0,0,1,0-1.41h0a1,1,0,0,1,1.42-.09l40.93,39.06a1,1,0,0,1,0,1.41Z" style="fill: rgb(64, 123, 255); transform-origin: 260.965px 196.89px;" id="eluxpr9p368b8" class="animable"></path><path d="M236.17,217.07h0a1,1,0,0,1,.21-1.42l20.88-17.07a1,1,0,0,1,1.4.09h0a1,1,0,0,1-.21,1.41l-20.88,17.08A1,1,0,0,1,236.17,217.07Z" style="fill: rgb(64, 123, 255); transform-origin: 247.413px 207.87px;" id="elep7c8hqqk7s" class="animable"></path><path d="M263.15,195h0a1,1,0,0,1,.21-1.41l20.92-17.1a1,1,0,0,1,1.4.09h0a1,1,0,0,1-.21,1.41l-20.92,17.1A1,1,0,0,1,263.15,195Z" style="fill: rgb(64, 123, 255); transform-origin: 274.415px 185.79px;" id="elnk8npovtgvj" class="animable"></path><g id="eltmwmjtdfnvg"><g style="opacity: 0.7; transform-origin: 260.965px 196.89px;" class="animable"><path d="M282.14,217.08a1,1,0,0,1-1.42.09l-40.93-39.06a1,1,0,0,1,0-1.41h0a1,1,0,0,1,1.42-.09l40.93,39.06a1,1,0,0,1,0,1.41Z" style="fill: rgb(255, 255, 255); transform-origin: 260.965px 196.89px;" id="el5dy8khev7zr" class="animable"></path></g></g><g id="elm8uuio5zkem"><g style="opacity: 0.7; transform-origin: 247.413px 207.87px;" class="animable"><path d="M236.17,217.07h0a1,1,0,0,1,.21-1.42l20.88-17.07a1,1,0,0,1,1.4.09h0a1,1,0,0,1-.21,1.41l-20.88,17.08A1,1,0,0,1,236.17,217.07Z" style="fill: rgb(255, 255, 255); transform-origin: 247.413px 207.87px;" id="eljj5iux44hi" class="animable"></path></g></g><g id="eli8bfvi5u7lp"><g style="opacity: 0.7; transform-origin: 274.415px 185.79px;" class="animable"><path d="M263.15,195h0a1,1,0,0,1,.21-1.41l20.92-17.1a1,1,0,0,1,1.4.09h0a1,1,0,0,1-.21,1.41l-20.92,17.1A1,1,0,0,1,263.15,195Z" style="fill: rgb(255, 255, 255); transform-origin: 274.415px 185.79px;" id="elmrs7u1ovdq" class="animable"></path></g></g></g><g id="freepik--Icons--inject-4" class="animable" style="transform-origin: 226.475px 152.805px;"><path d="M165.74,114.84h-13A4.76,4.76,0,0,0,148,119.6v13a4.76,4.76,0,0,0,4.76,4.76h13a4.76,4.76,0,0,0,4.76-4.76v-13A4.76,4.76,0,0,0,165.74,114.84Zm-6.47,4.6c1.95,0,3,1.59,3,3.54s-1.05,3.54-3,3.54-3-1.58-3-3.54S157.31,119.44,159.27,119.44Zm7.81,13.27H151.45a.48.48,0,0,1-.34-.14l1-2.73a4.46,4.46,0,0,1,4.19-2.94h5.91a4.47,4.47,0,0,1,4.2,2.94l1,2.73A.46.46,0,0,1,167.08,132.71Z" style="fill: rgb(64, 123, 255); transform-origin: 159.26px 126.1px;" id="elkrlibp792p8" class="animable"></path><g id="elzd8g2wrhfgr"><path d="M165.74,114.84h-13A4.76,4.76,0,0,0,148,119.6v13a4.76,4.76,0,0,0,4.76,4.76h13a4.76,4.76,0,0,0,4.76-4.76v-13A4.76,4.76,0,0,0,165.74,114.84Zm-6.47,4.6c1.95,0,3,1.59,3,3.54s-1.05,3.54-3,3.54-3-1.58-3-3.54S157.31,119.44,159.27,119.44Zm7.81,13.27H151.45a.48.48,0,0,1-.34-.14l1-2.73a4.46,4.46,0,0,1,4.19-2.94h5.91a4.47,4.47,0,0,1,4.2,2.94l1,2.73A.46.46,0,0,1,167.08,132.71Z" style="fill: rgb(255, 255, 255); opacity: 0.7; transform-origin: 159.26px 126.1px;" class="animable"></path></g><path d="M119.66,168.12h-9.84a6.4,6.4,0,0,0-6.41,6.4v9.84a6.41,6.41,0,0,0,6.41,6.41h9.84a6.4,6.4,0,0,0,6.4-6.41v-9.84A6.39,6.39,0,0,0,119.66,168.12Zm-4.92,16.69s-4-4.39-4-6.63a4,4,0,0,1,8.09,0C118.78,180.42,114.74,184.81,114.74,184.81Z" style="fill: rgb(64, 123, 255); transform-origin: 114.735px 179.445px;" id="ellx2j73hw33o" class="animable"></path><path d="M114.74,176.34a1.85,1.85,0,1,0,1.84,1.84A1.84,1.84,0,0,0,114.74,176.34Z" style="fill: rgb(64, 123, 255); transform-origin: 114.73px 178.19px;" id="el14ykcqwfe15" class="animable"></path><g id="elh47opx2dndn"><g style="opacity: 0.7; transform-origin: 114.735px 179.445px;" class="animable"><path d="M119.66,168.12h-9.84a6.4,6.4,0,0,0-6.41,6.4v9.84a6.41,6.41,0,0,0,6.41,6.41h9.84a6.4,6.4,0,0,0,6.4-6.41v-9.84A6.39,6.39,0,0,0,119.66,168.12Zm-4.92,16.69s-4-4.39-4-6.63a4,4,0,0,1,8.09,0C118.78,180.42,114.74,184.81,114.74,184.81Z" style="fill: rgb(255, 255, 255); transform-origin: 114.735px 179.445px;" id="el0jc6r99mf1ua" class="animable"></path><path d="M114.74,176.34a1.85,1.85,0,1,0,1.84,1.84A1.84,1.84,0,0,0,114.74,176.34Z" style="fill: rgb(255, 255, 255); transform-origin: 114.73px 178.19px;" id="elevk3gez9bfu" class="animable"></path></g></g><polygon points="335.7 140.23 342.29 135.97 335.7 131.7 335.7 140.23" style="fill: rgb(64, 123, 255); transform-origin: 338.995px 135.965px;" id="eldyrgics2bni" class="animable"></polygon><path d="M344.19,124.34H331.63a5.35,5.35,0,0,0-5.35,5.35v12.56a5.36,5.36,0,0,0,5.35,5.35h12.56a5.35,5.35,0,0,0,5.35-5.35V129.69A5.34,5.34,0,0,0,344.19,124.34Zm-6.28,20a8.37,8.37,0,1,1,8.37-8.36A8.36,8.36,0,0,1,337.91,144.33Z" style="fill: rgb(64, 123, 255); transform-origin: 337.91px 135.97px;" id="el76s8x1l2uog" class="animable"></path><g id="elj7qspmm9u5g"><g style="opacity: 0.7; transform-origin: 337.91px 135.97px;" class="animable"><polygon points="335.7 140.23 342.29 135.97 335.7 131.7 335.7 140.23" style="fill: rgb(255, 255, 255); transform-origin: 338.995px 135.965px;" id="elkmq93m8nz3b" class="animable"></polygon><path d="M344.19,124.34H331.63a5.35,5.35,0,0,0-5.35,5.35v12.56a5.36,5.36,0,0,0,5.35,5.35h12.56a5.35,5.35,0,0,0,5.35-5.35V129.69A5.34,5.34,0,0,0,344.19,124.34Zm-6.28,20a8.37,8.37,0,1,1,8.37-8.36A8.36,8.36,0,0,1,337.91,144.33Z" style="fill: rgb(255, 255, 255); transform-origin: 337.91px 135.97px;" id="elcnwkgiq8gm8" class="animable"></path></g></g></g><g id="freepik--Gears--inject-4" class="animable" style="transform-origin: 331.745px 189.885px;"><path d="M356.52,172.51c0-.26,0-.52,0-.77l1.51-.84a9.92,9.92,0,0,0-.56-2.09l-1.72,0a8.52,8.52,0,0,0-.78-1.34l.89-1.47a10.61,10.61,0,0,0-1.53-1.54l-1.48.89a8.84,8.84,0,0,0-1.33-.77l0-1.73a10.89,10.89,0,0,0-2.09-.56l-.84,1.51c-.25,0-.51,0-.77,0s-.51,0-.77,0l-.84-1.51a11.29,11.29,0,0,0-2.09.56l0,1.73a8.37,8.37,0,0,0-1.33.77l-1.48-.89a10.19,10.19,0,0,0-1.54,1.54l.89,1.47a9.32,9.32,0,0,0-.77,1.34l-1.72,0a10.58,10.58,0,0,0-.57,2.09l1.51.84c0,.25,0,.51,0,.77s0,.52,0,.77l-1.51.84a10.4,10.4,0,0,0,.57,2.09l1.72,0a9.32,9.32,0,0,0,.77,1.34l-.89,1.48a10.61,10.61,0,0,0,1.54,1.53l1.48-.89a7.67,7.67,0,0,0,1.33.77l0,1.73a10.56,10.56,0,0,0,2.09.56l.84-1.51c.26,0,.51,0,.77,0s.52,0,.77,0l.84,1.51a10.2,10.2,0,0,0,2.09-.56l0-1.73a8.06,8.06,0,0,0,1.33-.77l1.48.89a11.06,11.06,0,0,0,1.53-1.53l-.89-1.48a8.52,8.52,0,0,0,.78-1.34l1.72,0a9.76,9.76,0,0,0,.56-2.09l-1.51-.84C356.5,173,356.52,172.77,356.52,172.51Zm-8.72,5.92a5.92,5.92,0,1,1,5.92-5.92A5.92,5.92,0,0,1,347.8,178.43Z" style="fill: rgb(64, 123, 255); transform-origin: 347.815px 172.51px;" id="els6oezg30jd" class="animable"></path><g id="el6dgajok5iid"><path d="M356.52,172.51c0-.26,0-.52,0-.77l1.51-.84a9.92,9.92,0,0,0-.56-2.09l-1.72,0a8.52,8.52,0,0,0-.78-1.34l.89-1.47a10.61,10.61,0,0,0-1.53-1.54l-1.48.89a8.84,8.84,0,0,0-1.33-.77l0-1.73a10.89,10.89,0,0,0-2.09-.56l-.84,1.51c-.25,0-.51,0-.77,0s-.51,0-.77,0l-.84-1.51a11.29,11.29,0,0,0-2.09.56l0,1.73a8.37,8.37,0,0,0-1.33.77l-1.48-.89a10.19,10.19,0,0,0-1.54,1.54l.89,1.47a9.32,9.32,0,0,0-.77,1.34l-1.72,0a10.58,10.58,0,0,0-.57,2.09l1.51.84c0,.25,0,.51,0,.77s0,.52,0,.77l-1.51.84a10.4,10.4,0,0,0,.57,2.09l1.72,0a9.32,9.32,0,0,0,.77,1.34l-.89,1.48a10.61,10.61,0,0,0,1.54,1.53l1.48-.89a7.67,7.67,0,0,0,1.33.77l0,1.73a10.56,10.56,0,0,0,2.09.56l.84-1.51c.26,0,.51,0,.77,0s.52,0,.77,0l.84,1.51a10.2,10.2,0,0,0,2.09-.56l0-1.73a8.06,8.06,0,0,0,1.33-.77l1.48.89a11.06,11.06,0,0,0,1.53-1.53l-.89-1.48a8.52,8.52,0,0,0,.78-1.34l1.72,0a9.76,9.76,0,0,0,.56-2.09l-1.51-.84C356.5,173,356.52,172.77,356.52,172.51Zm-8.72,5.92a5.92,5.92,0,1,1,5.92-5.92A5.92,5.92,0,0,1,347.8,178.43Z" style="fill: rgb(255, 255, 255); opacity: 0.7; transform-origin: 347.815px 172.51px;" class="animable"></path></g><path d="M333.73,202.24c0-.39,0-.77-.05-1.15l2.26-1.25a15.62,15.62,0,0,0-.84-3.14l-2.58.05a12.85,12.85,0,0,0-1.16-2l1.33-2.21a15.49,15.49,0,0,0-2.29-2.29l-2.21,1.32a13.65,13.65,0,0,0-2-1.15l0-2.58a15.35,15.35,0,0,0-3.13-.84l-1.25,2.26c-.38,0-.76,0-1.15,0s-.77,0-1.15,0L318.29,187a15.7,15.7,0,0,0-3.13.84l0,2.58a13.54,13.54,0,0,0-2,1.15L311,190.25a15.56,15.56,0,0,0-2.3,2.29l1.33,2.21a12.8,12.8,0,0,0-1.15,2l-2.58-.05a15,15,0,0,0-.84,3.14l2.26,1.25a11.05,11.05,0,0,0,0,2.3l-2.26,1.26a15.05,15.05,0,0,0,.84,3.13l2.58-.05a12.36,12.36,0,0,0,1.15,2l-1.33,2.21a15.56,15.56,0,0,0,2.3,2.29l2.21-1.32a12.7,12.7,0,0,0,2,1.15l0,2.58a15.05,15.05,0,0,0,3.13.84l1.26-2.26a11.05,11.05,0,0,0,2.3,0l1.25,2.26a14.73,14.73,0,0,0,3.13-.84l0-2.58a12.8,12.8,0,0,0,2-1.15l2.21,1.32a15.49,15.49,0,0,0,2.29-2.29l-1.33-2.21a12.41,12.41,0,0,0,1.16-2l2.58.05a15.7,15.7,0,0,0,.84-3.13l-2.26-1.26C333.71,203,333.73,202.63,333.73,202.24Zm-13,5.14a5.14,5.14,0,1,1,5.14-5.14A5.14,5.14,0,0,1,320.7,207.38Z" style="fill: rgb(64, 123, 255); transform-origin: 320.745px 202.24px;" id="eljy02t0qy9me" class="animable"></path><g id="elwhy0liir4lc"><path d="M333.73,202.24c0-.39,0-.77-.05-1.15l2.26-1.25a15.62,15.62,0,0,0-.84-3.14l-2.58.05a12.85,12.85,0,0,0-1.16-2l1.33-2.21a15.49,15.49,0,0,0-2.29-2.29l-2.21,1.32a13.65,13.65,0,0,0-2-1.15l0-2.58a15.35,15.35,0,0,0-3.13-.84l-1.25,2.26c-.38,0-.76,0-1.15,0s-.77,0-1.15,0L318.29,187a15.7,15.7,0,0,0-3.13.84l0,2.58a13.54,13.54,0,0,0-2,1.15L311,190.25a15.56,15.56,0,0,0-2.3,2.29l1.33,2.21a12.8,12.8,0,0,0-1.15,2l-2.58-.05a15,15,0,0,0-.84,3.14l2.26,1.25a11.05,11.05,0,0,0,0,2.3l-2.26,1.26a15.05,15.05,0,0,0,.84,3.13l2.58-.05a12.36,12.36,0,0,0,1.15,2l-1.33,2.21a15.56,15.56,0,0,0,2.3,2.29l2.21-1.32a12.7,12.7,0,0,0,2,1.15l0,2.58a15.05,15.05,0,0,0,3.13.84l1.26-2.26a11.05,11.05,0,0,0,2.3,0l1.25,2.26a14.73,14.73,0,0,0,3.13-.84l0-2.58a12.8,12.8,0,0,0,2-1.15l2.21,1.32a15.49,15.49,0,0,0,2.29-2.29l-1.33-2.21a12.41,12.41,0,0,0,1.16-2l2.58.05a15.7,15.7,0,0,0,.84-3.13l-2.26-1.26C333.71,203,333.73,202.63,333.73,202.24Zm-13,5.14a5.14,5.14,0,1,1,5.14-5.14A5.14,5.14,0,0,1,320.7,207.38Z" style="fill: rgb(255, 255, 255); opacity: 0.7; transform-origin: 320.745px 202.24px;" class="animable"></path></g></g><g id="freepik--speech-bubbles--inject-4" class="animable" style="transform-origin: 255.97px 250.415px;"><path d="M297,144.26v5.24l-5,2.63a1.22,1.22,0,0,0,0,2.15l5,2.63v5.24a2.11,2.11,0,0,0,2.11,2.11H317a2.12,2.12,0,0,0,2.12-2.11V144.26a2.12,2.12,0,0,0-2.12-2.12H299.08A2.11,2.11,0,0,0,297,144.26Z" style="fill: rgb(64, 123, 255); transform-origin: 305.238px 153.2px;" id="el48khi7ltmih" class="animable"></path><g id="eluzi0dyf1p8b"><g style="opacity: 0.9; transform-origin: 308.205px 153.205px;" class="animable"><path d="M303.12,149.72h10.17a1.25,1.25,0,0,0,0-2.5H303.12a1.25,1.25,0,0,0,0,2.5Z" style="fill: rgb(255, 255, 255); transform-origin: 308.205px 148.47px;" id="elmxq19btb3ib" class="animable"></path><path d="M313.29,152H303.12a1.25,1.25,0,0,0,0,2.5h10.17a1.25,1.25,0,0,0,0-2.5Z" style="fill: rgb(255, 255, 255); transform-origin: 308.205px 153.25px;" id="eldhc3961q99v" class="animable"></path><path d="M313.29,156.69H303.12a1.25,1.25,0,0,0,0,2.5h10.17a1.25,1.25,0,0,0,0-2.5Z" style="fill: rgb(255, 255, 255); transform-origin: 308.205px 157.94px;" id="elwk9myhzmc1s" class="animable"></path></g></g><path d="M195.9,136h4.27l2.2,4.17a1.7,1.7,0,0,0,3,0l2.2-4.17h4.27a3.08,3.08,0,0,0,3.08-3.09V117a3.08,3.08,0,0,0-3.08-3.08H195.9a3.07,3.07,0,0,0-3.08,3.08V133A3.08,3.08,0,0,0,195.9,136Z" style="fill: rgb(64, 123, 255); transform-origin: 203.87px 127.495px;" id="elg7lc7nqrmnd" class="animable"></path><g id="el2ge8bbh6gc5"><polygon points="203.88 118.69 198.96 121.57 198.96 129.99 202.62 129.99 202.62 124.34 205.15 124.34 205.15 129.99 208.81 129.99 208.81 121.57 203.88 118.69" style="fill: rgb(255, 255, 255); opacity: 0.9; transform-origin: 203.885px 124.34px;" class="animable"></polygon></g><path d="M243.8,364.79H240l-2.45-4.66a1.42,1.42,0,0,0-2.5,0l-2.45,4.66H228.7a3.51,3.51,0,0,0-3.51,3.51v15.1a3.51,3.51,0,0,0,3.51,3.51h15.1a3.51,3.51,0,0,0,3.51-3.51V368.3A3.51,3.51,0,0,0,243.8,364.79Z" style="fill: rgb(64, 123, 255); transform-origin: 236.25px 373.147px;" id="elb1gntfm7g3b" class="animable"></path><g id="el0r0hyh7lszue"><path d="M238.39,370.56a5.46,5.46,0,1,0-.77,8.36,1.26,1.26,0,0,0,.33.66l3.4,3.39a1.22,1.22,0,0,0,1.73-1.73l-3.39-3.39a1.23,1.23,0,0,0-.67-.34A5.48,5.48,0,0,0,238.39,370.56Zm-1.16,6.57a3.83,3.83,0,1,1,0-5.42A3.83,3.83,0,0,1,237.23,377.13Z" style="fill: rgb(255, 255, 255); opacity: 0.9; transform-origin: 236.253px 376.144px;" class="animable"></path></g></g><g id="freepik--character-2--inject-4" class="animable" style="transform-origin: 354.94px 302.462px;"><path d="M405.29,264.23s-8.15,20.2-16.13,22.38-20,.41-20,.41l-3.72,1-3.65-.54h-.13l-4.11-.1a.78.78,0,0,1-.7-1.23l1.47-2a1,1,0,0,1,.49-.35l3.92-1.26a1.08,1.08,0,0,1,.47,0l6,.95s16.65-2.73,18.35-4.27,6.71-17.69,6.71-17.69Z" style="fill: rgb(238, 193, 187); transform-origin: 380.998px 274.775px;" id="eladwmju5rrz7" class="animable"></path><g id="eliq6b0o0bheq"><path d="M369.57,283.36l-.39.06-6-.95a1.08,1.08,0,0,0-.47,0l-3.92,1.26a1,1,0,0,0-.49.35l-1.47,2a.78.78,0,0,0,.7,1.23l4.11.1h.13l2.45.36A15.7,15.7,0,0,0,369.57,283.36Z" style="opacity: 0.1; transform-origin: 363.128px 285.107px;" class="animable"></path></g><path d="M410.21,244.22c-5.92-1.94-14.25,2.51-17.44,21.15L405.06,269S418.67,247,410.21,244.22Z" style="fill: rgb(64, 123, 255); transform-origin: 402.876px 256.401px;" id="el6hbkfgueqak" class="animable"></path><path d="M375.77,219.86c0,.62.33,1.11.73,1.11s.75-.53.72-1.13-.33-1.1-.73-1.09S375.77,219.25,375.77,219.86Z" style="fill: rgb(38, 50, 56); transform-origin: 376.496px 219.86px;" id="elm3lgl5p0wf" class="animable"></path><path d="M378.19,220.47l-2.91,4.81s1,1.14,3.19.3Z" style="fill: rgb(212, 130, 125); transform-origin: 376.875px 223.179px;" id="elo90scfhk3kd" class="animable"></path><path d="M378.74,216a.31.31,0,0,1-.29.1,2.51,2.51,0,0,0-2.19.69.33.33,0,0,1-.45,0,.34.34,0,0,1,0-.46,3.11,3.11,0,0,1,2.76-.89.32.32,0,0,1,.28.36h0A.38.38,0,0,1,378.74,216Z" style="fill: rgb(38, 50, 56); transform-origin: 377.287px 216.136px;" id="eluhq05k0x1" class="animable"></path><path d="M399.3,215.5c.45,8.13.82,11.57-2.77,16.19-5.73,4.95-15.49,5.74-18.37-2.09-2.59-7-2.89-19.13,4.63-23.32a11.11,11.11,0,0,1,15.12,4.31A11.29,11.29,0,0,1,399.3,215.5Z" style="fill: rgb(238, 193, 187); transform-origin: 388.041px 220.162px;" id="el3o3ns75v0vh" class="animable"></path><polygon points="387.97 233.29 390.03 245.34 400.07 243.02 396.56 230.72 387.97 233.29" style="fill: rgb(238, 193, 187); transform-origin: 394.02px 238.03px;" id="elp1bf636z5af" class="animable"></polygon><path d="M380.74,216.1c.51-5.28-1.31.82-3.75-6.15s9.09-12.63,10.93-11.33.79,3.29,6.89,4.42a6.93,6.93,0,0,1,5.84,7.05s3.51,1.62,2.26,9.16a30.9,30.9,0,0,1-6,13.25s-2.31-2.38-6-.19a11.85,11.85,0,0,1-3.57-3.64c-1.64-2.46-2.15-4.8-4.4-5C378.24,223.24,380.57,217.84,380.74,216.1Z" style="fill: rgb(38, 50, 56); transform-origin: 389.916px 215.467px;" id="elu7kmfnzu4mo" class="animable"></path><path d="M400,211s5-3.06,2.78-6.27S401.63,208.27,400,211Z" style="fill: rgb(38, 50, 56); transform-origin: 401.674px 207.441px;" id="elyv97cvry0e9" class="animable"></path><path d="M382.17,219.17a6.28,6.28,0,0,0-1.59,4.53c.14,2.2,2.3,2.59,4,1.39s3.31-3.54,2.33-5.47A2.83,2.83,0,0,0,382.17,219.17Z" style="fill: rgb(255, 195, 189); transform-origin: 383.889px 221.923px;" id="elp0vfjm93cfc" class="animable"></path><g id="el0v7xhhgxvge"><path d="M388.16,234.43l.82,4.78a9,9,0,0,1,2.26-6.53A4.05,4.05,0,0,0,388.16,234.43Z" style="opacity: 0.1; transform-origin: 389.7px 235.945px;" class="animable"></path></g><rect x="314.7" y="265.51" width="2.87" height="16.93" style="fill: rgb(64, 123, 255); transform-origin: 316.135px 273.975px;" id="el2nuxul0w4wd" class="animable"></rect><g id="eljvrokvi3pma"><rect x="314.7" y="265.51" width="2.87" height="16.93" style="fill: rgb(255, 255, 255); opacity: 0.7; transform-origin: 316.135px 273.975px;" class="animable"></rect></g><path d="M297.85,231.89H290.7a4.85,4.85,0,0,0-4.85,4.85v33.13a4.85,4.85,0,0,0,4.85,4.85h7.15Z" style="fill: rgb(64, 123, 255); transform-origin: 291.85px 253.305px;" id="elzpm3w8pkyqa" class="animable"></path><rect x="288.35" y="231.89" width="58.08" height="42.82" rx="4.85" style="fill: rgb(64, 123, 255); transform-origin: 317.39px 253.3px;" id="ell96s92t9bc" class="animable"></rect><g id="el9ksp1efqfkp"><rect x="288.35" y="231.89" width="58.08" height="42.82" rx="4.85" style="fill: rgb(255, 255, 255); opacity: 0.5; transform-origin: 317.39px 253.3px;" class="animable"></rect></g><rect x="290.35" y="233.89" width="54.08" height="38.82" rx="2.85" style="fill: rgb(38, 50, 56); transform-origin: 317.39px 253.3px;" id="eleyqfttd08dr" class="animable"></rect><path d="M305.69,289.54a10.45,10.45,0,0,1,20.89,0Z" style="fill: rgb(64, 123, 255); transform-origin: 316.135px 284.477px;" id="elc8zsib6zg5r" class="animable"></path><polygon points="330.34 285.98 309.45 285.98 309.45 289.37 351.23 289.37 351.23 287.98 330.34 285.98" style="fill: rgb(64, 123, 255); transform-origin: 330.34px 287.675px;" id="elxs9wtok647" class="animable"></polygon><g id="elfjj6n53wtv"><polygon points="330.34 285.98 309.45 285.98 309.45 289.37 351.23 289.37 351.23 287.98 330.34 285.98" style="fill: rgb(255, 255, 255); opacity: 0.8; transform-origin: 330.34px 287.675px;" class="animable"></polygon></g><polygon points="330.34 289.37 309.45 289.37 309.45 285.98 330.34 287.98 330.34 289.37" style="fill: rgb(64, 123, 255); transform-origin: 319.895px 287.675px;" id="ellwvibpmfupf" class="animable"></polygon><g id="eliz6qxal3q9"><polygon points="330.34 289.37 309.45 289.37 309.45 285.98 330.34 287.98 330.34 289.37" style="fill: rgb(255, 255, 255); opacity: 0.6; transform-origin: 319.895px 287.675px;" class="animable"></polygon></g><path d="M376.4,406.08H333.31a6.54,6.54,0,0,1-6.55-6.54V300.46a6.54,6.54,0,0,1,6.55-6.54H376.4a1.75,1.75,0,0,1,1.75,1.75h0a1.75,1.75,0,0,1-1.75,1.75H333.31a3,3,0,0,0-3.05,3v99.08a3,3,0,0,0,3.05,3H376.4a1.75,1.75,0,0,1,1.75,1.75h0A1.75,1.75,0,0,1,376.4,406.08Z" style="fill: rgb(38, 50, 56); transform-origin: 352.456px 350px;" id="elamuaoewqj9j" class="animable"></path><g id="el28ajbgdsk6g"><g style="opacity: 0.5; transform-origin: 352.456px 350px;" class="animable"><path d="M376.4,406.08H333.31a6.54,6.54,0,0,1-6.55-6.54V300.46a6.54,6.54,0,0,1,6.55-6.54H376.4a1.75,1.75,0,0,1,1.75,1.75h0a1.75,1.75,0,0,1-1.75,1.75H333.31a3,3,0,0,0-3.05,3v99.08a3,3,0,0,0,3.05,3H376.4a1.75,1.75,0,0,1,1.75,1.75h0A1.75,1.75,0,0,1,376.4,406.08Z" style="fill: rgb(255, 255, 255); transform-origin: 352.456px 350px;" id="elzx660ev12l" class="animable"></path></g></g><rect x="271.95" y="289.37" width="61.19" height="5.13" style="fill: rgb(64, 123, 255); transform-origin: 302.545px 291.935px;" id="el6xj7p9t0g1b" class="animable"></rect><g id="el9wy22c7ec0d"><rect x="271.95" y="289.37" width="61.19" height="5.13" style="fill: rgb(255, 255, 255); opacity: 0.2; transform-origin: 302.545px 291.935px;" class="animable"></rect></g><rect x="330.34" y="289.37" width="52.19" height="5.13" style="fill: rgb(64, 123, 255); transform-origin: 356.435px 291.935px;" id="elw90r0f4ufxi" class="animable"></rect><g id="elun47jwgc3do"><rect x="330.34" y="289.37" width="52.19" height="5.13" style="fill: rgb(255, 255, 255); opacity: 0.5; transform-origin: 356.435px 291.935px;" class="animable"></rect></g><polygon points="364.23 369.73 367.12 398.95 360.2 398.95 353.27 370.49 364.23 369.73" style="fill: rgb(238, 193, 187); transform-origin: 360.195px 384.34px;" id="el9j4auhsvk7" class="animable"></polygon><path d="M359.55,397l8.83.15a.71.71,0,0,1,.68.57l1.48,7.21a1.19,1.19,0,0,1-.91,1.4l-.25,0c-3.19-.11-6-.33-10-.4-4.67-.08-3.5.5-9,.49-3.31,0-3.85-3.79-2.45-3.95,6.45-.7,7.15-2.63,9.67-4.89A2.86,2.86,0,0,1,359.55,397Z" style="fill: rgb(38, 50, 56); transform-origin: 358.886px 401.706px;" id="el8fqcp7ftj1r" class="animable"></path><g id="elpko3j25vocb"><polygon points="366.37 391.32 364.23 369.73 353.27 370.49 358.34 391.32 366.37 391.32" style="opacity: 0.1; transform-origin: 359.82px 380.525px;" class="animable"></polygon></g><path d="M411.61,302.36l-28.38,1S345,316.73,344,327c-1.1,10.58,11.74,59.19,11.74,59.19h11.41s-3.15-35.67-4.35-46.59,39.79-7.31,46.91-16.62C416.22,314.44,411.61,302.36,411.61,302.36Z" style="fill: rgb(38, 50, 56); transform-origin: 378.563px 344.275px;" id="elske3olk5ssm" class="animable"></path><g id="elnyeus1t1nqs"><path d="M411.61,302.36l-28.38,1S345,316.73,344,327c-1.1,10.58,11.74,59.19,11.74,59.19h11.41s-3.15-35.67-4.35-46.59,39.79-7.31,46.91-16.62C416.22,314.44,411.61,302.36,411.61,302.36Z" style="opacity: 0.2; transform-origin: 378.563px 344.275px;" class="animable"></path></g><polygon points="369.05 384.59 369.3 388.62 355.2 388.62 353.82 384.59 369.05 384.59" style="fill: rgb(64, 123, 255); transform-origin: 361.56px 386.605px;" id="el1o69uauvwhs" class="animable"></polygon><polygon points="337.82 371.12 338.58 398.95 331.78 398.95 327.75 371.12 337.82 371.12" style="fill: rgb(238, 193, 187); transform-origin: 333.165px 385.035px;" id="elah6yjd6j88" class="animable"></polygon><path d="M330.84,397l8.83.15a.71.71,0,0,1,.68.57l1.48,7.21a1.19,1.19,0,0,1-.91,1.4l-.25,0c-3.19-.11-6-.33-10-.4-4.68-.08-3.5.5-9,.49-3.31,0-3.85-3.79-2.45-3.95,6.45-.7,7.15-2.63,9.67-4.89A2.84,2.84,0,0,1,330.84,397Z" style="fill: rgb(38, 50, 56); transform-origin: 330.176px 401.706px;" id="elx2eol3gfwt" class="animable"></path><g id="elcjd4d6xie0u"><path d="M338.37,391.3l-.55-20.18H327.75l2.93,20.2C332.87,391.33,335.88,391.31,338.37,391.3Z" style="opacity: 0.1; transform-origin: 333.06px 381.221px;" class="animable"></path></g><path d="M399.27,304.71s2.36,21.58-19.59,22.59-39.09,3.52-39.59,11.33,0,47.6,0,47.6H328.16s-4.64-25.16-6.45-40.76c-1.76-15.15-5-26.14,10.57-31.27,16.53-5.46,45.91-10.5,45.91-10.5l21.16-1.34Z" style="fill: rgb(38, 50, 56); transform-origin: 359.763px 344.295px;" id="elori853lxxyl" class="animable"></path><polygon points="341.85 384.59 341.1 388.62 328 388.62 326.62 384.59 341.85 384.59" style="fill: rgb(64, 123, 255); transform-origin: 334.235px 386.605px;" id="elsqnwts2x6n" class="animable"></polygon><path d="M404,242.8s0-4.86-9.83-4.3c-10.44.6-8.47,5.26-8.47,5.26Z" style="fill: rgb(64, 123, 255); transform-origin: 394.776px 241.108px;" id="elvqd35cjcyjo" class="animable"></path><g id="eld9icoh5r6iq"><path d="M404,242.8s0-4.86-9.83-4.3c-10.44.6-8.47,5.26-8.47,5.26Z" style="opacity: 0.3; transform-origin: 394.776px 241.108px;" class="animable"></path></g><path d="M413.16,264.6c-.66,9.61-.43,38.52-.43,38.52s-21,1.38-37.48.84l-1.91-55.61a4.89,4.89,0,0,1,3.14-4.53c4.66-1.81,15.6-3.86,32.71-1.61C415.09,243,413.94,253.24,413.16,264.6Z" style="fill: rgb(64, 123, 255); transform-origin: 393.571px 272.654px;" id="el77fo4tka9c7" class="animable"></path><path d="M376.71,264.23s-8.16,20.2-16.13,22.38-20,.41-20,.41l-3.72,1-3.64-.54h-.13l-4.12-.1a.78.78,0,0,1-.7-1.23l1.48-2a1,1,0,0,1,.49-.35l3.91-1.26a1.12,1.12,0,0,1,.48,0l6,.95s16.65-2.73,18.34-4.27,6.72-17.69,6.72-17.69Z" style="fill: rgb(238, 193, 187); transform-origin: 352.418px 274.775px;" id="elz5tdspwa6m" class="animable"></path><g id="elrpxfid4ctz"><path d="M376.5,254.83s-1.27,1.51-2.81,3.69l.55,16.1c6.13-2.71,8.56-18.49,8.56-18.49l-4-2.82Z" style="opacity: 0.1; transform-origin: 378.245px 263.965px;" class="animable"></path></g><path d="M381.63,244.22c-5.92-1.94-14.26,2.51-17.45,21.15l12.3,3.59S390.09,247,381.63,244.22Z" style="fill: rgb(64, 123, 255); transform-origin: 374.291px 256.381px;" id="el3rqs90ird6p" class="animable"></path><rect x="380.21" y="337.77" width="9.25" height="27.11" style="fill: rgb(38, 50, 56); transform-origin: 384.835px 351.325px;" id="elukrg7yf3y6" class="animable"></rect><g id="elasne0g2c04i"><rect x="380.21" y="337.77" width="9.25" height="27.11" style="fill: rgb(255, 255, 255); opacity: 0.6; transform-origin: 384.835px 351.325px;" class="animable"></rect></g><polygon points="390.89 389.44 390.89 355 378.77 355 378.77 389.44 351.18 393.27 351.18 397.1 384.83 394.23 418.48 397.1 418.48 393.27 390.89 389.44" style="fill: rgb(38, 50, 56); transform-origin: 384.83px 376.05px;" id="elh89w9dbykc" class="animable"></polygon><circle cx="350.78" cy="402.84" r="3.65" style="fill: rgb(64, 123, 255); transform-origin: 350.78px 402.84px;" id="elnaonn826fb" class="animable"></circle><circle cx="418.48" cy="402.84" r="3.65" style="fill: rgb(64, 123, 255); transform-origin: 418.48px 402.84px;" id="elez28wk98g9" class="animable"></circle><circle cx="384.83" cy="402.84" r="3.65" style="fill: rgb(64, 123, 255); transform-origin: 384.83px 402.84px;" id="ellq14l1908vg" class="animable"></circle><g id="elov6xkugra9"><rect x="380.21" y="337.77" width="9.25" height="6.7" style="opacity: 0.3; transform-origin: 384.835px 341.12px;" class="animable"></rect></g><path d="M421.4,276.32H391.26a9.52,9.52,0,0,0-9.47,8.63l-2.54,27.23a12.55,12.55,0,0,1-11.85,11.36L338.31,325a6.65,6.65,0,0,0-6.31,6.64v.61a5.51,5.51,0,0,0,5.51,5.51H426.1l4.77-51A9.52,9.52,0,0,0,421.4,276.32Z" style="fill: rgb(64, 123, 255); transform-origin: 381.457px 307.04px;" id="elkihita9l6xn" class="animable"></path><g id="eldlwuyy7lo8"><path d="M421.4,276.32H391.26a9.52,9.52,0,0,0-9.47,8.63l-2.54,27.23a12.55,12.55,0,0,1-11.85,11.36L338.31,325a6.65,6.65,0,0,0-6.31,6.64v.61a5.51,5.51,0,0,0,5.51,5.51H426.1l4.77-51A9.52,9.52,0,0,0,421.4,276.32Z" style="fill: rgb(255, 255, 255); opacity: 0.3; transform-origin: 381.457px 307.04px;" class="animable"></path></g><path d="M352.22,307h4.15a0,0,0,0,1,0,0v21.71a2,2,0,0,1-2,2h-.15a2,2,0,0,1-2-2V307A0,0,0,0,1,352.22,307Z" style="fill: rgb(38, 50, 56); transform-origin: 354.295px 318.855px;" id="elgw9m10r3bme" class="animable"></path><g id="elet668nz16xk"><path d="M352.22,307h4.15a0,0,0,0,1,0,0v21.71a2,2,0,0,1-2,2h-.15a2,2,0,0,1-2-2V307A0,0,0,0,1,352.22,307Z" style="fill: rgb(255, 255, 255); opacity: 0.2; transform-origin: 354.295px 318.855px;" class="animable"></path></g><path d="M372.23,300.77H363v7.65h9.25a3.83,3.83,0,1,0,0-7.65Z" style="fill: rgb(64, 123, 255); transform-origin: 369.638px 304.595px;" id="eltazov0t272" class="animable"></path><g id="elfxhi1cp1vyt"><path d="M372.23,300.77H363v7.65h9.25a3.83,3.83,0,1,0,0-7.65Z" style="fill: rgb(255, 255, 255); opacity: 0.5; transform-origin: 369.638px 304.595px;" class="animable"></path></g><rect x="332.52" y="300.77" width="39.71" height="7.66" rx="3.69" style="fill: rgb(64, 123, 255); transform-origin: 352.375px 304.6px;" id="elkn7smd65c3r" class="animable"></rect><g id="el887yd3xtgid"><rect x="332.52" y="300.77" width="39.71" height="7.66" rx="3.69" style="fill: rgb(255, 255, 255); opacity: 0.3; transform-origin: 352.375px 304.6px;" class="animable"></rect></g><path d="M428.18,337.77H383.87L388.81,285a9.52,9.52,0,0,1,9.47-8.63h30.14a9.52,9.52,0,0,1,9.47,10.4l-4.31,46.14A5.43,5.43,0,0,1,428.18,337.77Z" style="fill: rgb(64, 123, 255); transform-origin: 410.9px 307.07px;" id="el2hxreqvf9hk" class="animable"></path><g id="elv9jm15rsl8s"><path d="M428.18,337.77H383.87L388.81,285a9.52,9.52,0,0,1,9.47-8.63h30.14a9.52,9.52,0,0,1,9.47,10.4l-4.31,46.14A5.43,5.43,0,0,1,428.18,337.77Z" style="fill: rgb(255, 255, 255); opacity: 0.5; transform-origin: 410.9px 307.07px;" class="animable"></path></g><path d="M324.67,406.08H281.58a6.54,6.54,0,0,1-6.55-6.54V300.46a6.54,6.54,0,0,1,6.55-6.54h43.09a1.75,1.75,0,0,1,1.75,1.75h0a1.75,1.75,0,0,1-1.75,1.75H281.58a3,3,0,0,0-3.05,3v99.08a3,3,0,0,0,3.05,3h43.09a1.75,1.75,0,0,1,1.75,1.75h0A1.75,1.75,0,0,1,324.67,406.08Z" style="fill: rgb(38, 50, 56); transform-origin: 300.726px 350px;" id="el5q5miwidlup" class="animable"></path><g id="elfsv7mu12ccd"><g style="opacity: 0.5; transform-origin: 300.726px 350px;" class="animable"><path d="M324.67,406.08H281.58a6.54,6.54,0,0,1-6.55-6.54V300.46a6.54,6.54,0,0,1,6.55-6.54h43.09a1.75,1.75,0,0,1,1.75,1.75h0a1.75,1.75,0,0,1-1.75,1.75H281.58a3,3,0,0,0-3.05,3v99.08a3,3,0,0,0,3.05,3h43.09a1.75,1.75,0,0,1,1.75,1.75h0A1.75,1.75,0,0,1,324.67,406.08Z" style="fill: rgb(255, 255, 255); transform-origin: 300.726px 350px;" id="elfl3576qvbwd" class="animable"></path></g></g><path d="M296.19,241.79l-3-2a.54.54,0,0,1,0-.91l3-2a.5.5,0,0,1,.69.14h0a.5.5,0,0,1-.14.68l-2.49,1.65,2.49,1.65a.5.5,0,0,1,.14.68h0A.51.51,0,0,1,296.19,241.79Z" style="fill: rgb(255, 255, 255); transform-origin: 294.949px 239.338px;" id="eljxpmtcgad0a" class="animable"></path><path d="M302.83,241.65h0A.49.49,0,0,1,303,241l2.49-1.65L303,237.67a.49.49,0,0,1-.13-.68h0a.49.49,0,0,1,.68-.14l3,2a.54.54,0,0,1,0,.91l-3,2A.5.5,0,0,1,302.83,241.65Z" style="fill: rgb(255, 255, 255); transform-origin: 304.785px 239.318px;" id="elcdyi0kuusv" class="animable"></path><path d="M298.72,243h0a.49.49,0,0,1-.32-.62l2.07-6.54a.48.48,0,0,1,.61-.32h0a.48.48,0,0,1,.32.61l-2.06,6.55A.49.49,0,0,1,298.72,243Z" style="fill: rgb(255, 255, 255); transform-origin: 299.9px 239.26px;" id="elwm0kbxcuyym" class="animable"></path><path d="M315.7,248H293.43a.51.51,0,0,1-.51-.52h0a.51.51,0,0,1,.51-.52H315.7a.52.52,0,0,1,.52.52h0A.52.52,0,0,1,315.7,248Z" style="fill: rgb(255, 255, 255); transform-origin: 304.57px 247.48px;" id="el4wm22yytgk" class="animable"></path><path d="M341.28,248H319a.52.52,0,0,1-.52-.52h0A.52.52,0,0,1,319,247h22.26a.52.52,0,0,1,.52.52h0A.52.52,0,0,1,341.28,248Z" style="fill: rgb(255, 255, 255); transform-origin: 330.13px 247.5px;" id="elrhyg94bw8lq" class="animable"></path><path d="M306.16,252.58H293.43a.51.51,0,0,1-.51-.52h0a.51.51,0,0,1,.51-.51h12.73a.52.52,0,0,1,.52.51h0A.52.52,0,0,1,306.16,252.58Z" style="fill: rgb(255, 255, 255); transform-origin: 299.8px 252.065px;" id="ely2bnyu8ov7" class="animable"></path><path d="M330.32,252.58H309.47a.51.51,0,0,1-.51-.52h0a.51.51,0,0,1,.51-.51h20.85a.51.51,0,0,1,.51.51h0A.51.51,0,0,1,330.32,252.58Z" style="fill: rgb(255, 255, 255); transform-origin: 319.895px 252.065px;" id="elqxjgps8f2s" class="animable"></path><path d="M327.35,257.17H293.43a.52.52,0,0,1-.51-.52h0a.51.51,0,0,1,.51-.52h33.92a.52.52,0,0,1,.52.52h0A.52.52,0,0,1,327.35,257.17Z" style="fill: rgb(255, 255, 255); transform-origin: 310.395px 256.65px;" id="elxesrhnrj1d" class="animable"></path><path d="M337.75,257.17h-7.08a.52.52,0,0,1-.52-.52h0a.52.52,0,0,1,.52-.52h7.08a.52.52,0,0,1,.52.52h0A.52.52,0,0,1,337.75,257.17Z" style="fill: rgb(255, 255, 255); transform-origin: 334.21px 256.65px;" id="elqui3jscfmct" class="animable"></path><path d="M309.27,261.75H293.43a.51.51,0,0,1-.51-.52h0a.51.51,0,0,1,.51-.52h15.84a.52.52,0,0,1,.52.52h0A.52.52,0,0,1,309.27,261.75Z" style="fill: rgb(255, 255, 255); transform-origin: 301.355px 261.23px;" id="elwaqyd5wufd" class="animable"></path><path d="M332.3,261.75H312.59a.52.52,0,0,1-.52-.52h0a.52.52,0,0,1,.52-.52H332.3a.52.52,0,0,1,.52.52h0A.52.52,0,0,1,332.3,261.75Z" style="fill: rgb(255, 255, 255); transform-origin: 322.445px 261.23px;" id="elafumt03iihf" class="animable"></path><path d="M315.7,266.33H293.43a.51.51,0,0,1-.51-.52h0a.51.51,0,0,1,.51-.51H315.7a.51.51,0,0,1,.52.51h0A.52.52,0,0,1,315.7,266.33Z" style="fill: rgb(255, 255, 255); transform-origin: 304.57px 265.815px;" id="el2022usb4vj1" class="animable"></path><path d="M334.73,266.33H319a.52.52,0,0,1-.52-.52h0a.51.51,0,0,1,.52-.51h15.71a.51.51,0,0,1,.51.51h0A.51.51,0,0,1,334.73,266.33Z" style="fill: rgb(255, 255, 255); transform-origin: 326.85px 265.815px;" id="eliuw2hrryup" class="animable"></path></g><g id="freepik--character-1--inject-4" class="animable" style="transform-origin: 159.127px 279.843px;"><path d="M141.47,176.82c.41,4.71-.61,13.24-4.16,16,5.79,2.09,11.93,5.69,15.85,10.44,3.89-5.66-.53-8.89-.53-8.89-5-1.78-4.47-5.57-3.18-9.06Z" style="fill: rgb(185, 121, 100); transform-origin: 146.036px 190.04px;" id="el8p5cgx55qni" class="animable"></path><path d="M160.4,172.76c-.06.59.22,1.1.61,1.14s.74-.42.8-1-.22-1.1-.61-1.14S160.47,172.17,160.4,172.76Z" style="fill: rgb(38, 50, 56); transform-origin: 161.105px 172.83px;" id="elrbvvv9sakpe" class="animable"></path><path d="M161.05,171.77l1.45-.28S161.67,172.56,161.05,171.77Z" style="fill: rgb(38, 50, 56); transform-origin: 161.775px 171.775px;" id="elsejlq3j9j8" class="animable"></path><path d="M160.6,173.39a16.36,16.36,0,0,0,1.77,4,2.59,2.59,0,0,1-2.16.2Z" style="fill: rgb(162, 78, 63); transform-origin: 161.29px 175.564px;" id="el95ktt9a1sn" class="animable"></path><path d="M162.08,169.65a.41.41,0,0,0,.24-.13.36.36,0,0,0,0-.49,3.48,3.48,0,0,0-3.09-.83.37.37,0,0,0-.11.49.33.33,0,0,0,.3.16,2.83,2.83,0,0,1,2.44.69A.36.36,0,0,0,162.08,169.65Z" style="fill: rgb(38, 50, 56); transform-origin: 160.743px 168.885px;" id="elis94b4q2k1" class="animable"></path><path d="M141,169c-.23,7.31-.48,10.42,2.78,14.5,4.91,6.13,13.8,4.79,16.18-2.33,2.14-6.41,2.16-17.33-4.57-20.87S141.21,161.67,141,169Z" style="fill: rgb(185, 121, 100); transform-origin: 151.055px 173.262px;" id="elcctix62hx7g" class="animable"></path><path d="M141.32,182.81c-7.19-1.23-5.13-5.76-5.13-5.76-7.08-1.43-1.61-4.89-1.61-4.89-5.89-2.54,0-4.82,0-4.82C128.9,162.63,137,161,137,161c-2-7.35,5-4.33,5-4.33,3.8-6.32,7.08-.29,7.08-.29,6.66-9,8.28-1.41,8.28-1.41,6.81-1.79,4.2,5.37,4.2,5.37,5.6,1.5,1.2,4.34,1.2,4.34,2.16,2.73-5.65,3.2-5.65,3.2s3.72,6,0,7.65l-9.46,7.25S143.28,181,141.32,182.81Z" style="fill: rgb(38, 50, 56); transform-origin: 148.183px 167.394px;" id="el50qtsf4ixt5" class="animable"></path><path d="M148.39,176.91s5-12,1.09-22.24l3.3-1.13S157.09,168.43,148.39,176.91Z" style="fill: rgb(64, 123, 255); transform-origin: 151.119px 165.225px;" id="el7cfol008f5p" class="animable"></path><path d="M153.38,175.59c.82,1.72,1.14,2.47,2.32,3a2.14,2.14,0,0,0,3.14-2.38c-.31-1.72-1.63-4.25-3.46-4.3A2.39,2.39,0,0,0,153.38,175.59Z" style="fill: rgb(185, 121, 100); transform-origin: 155.954px 175.392px;" id="eljl9yn8nbih" class="animable"></path><path d="M148.21,200.57s6.77,5,9.52,7l19.59-9.24h0a5.41,5.41,0,0,1,3.3-5.12l1.4-.58,2.95-1.32a3.42,3.42,0,0,1,3.41.36h0a3.43,3.43,0,0,1,1.27,3.74h0a8.47,8.47,0,0,1-6,5.82l-2.86.75S164,214.7,158,215s-14.79-5.59-14.79-5.59Z" style="fill: rgb(185, 121, 100); transform-origin: 166.5px 203.012px;" id="elacmfo07v7a" class="animable"></path><path d="M131.93,192.14c5.17,0,10.95,3.22,20,9.12a24.85,24.85,0,0,1-7,11.08s-5-1.34-11.64-7.59C125.29,197.18,128.76,192.15,131.93,192.14Z" style="fill: rgb(38, 50, 56); transform-origin: 140.158px 202.24px;" id="el1sh70d2gmr4" class="animable"></path><path d="M230.13,207.12h-49a2.91,2.91,0,0,1-2.94-3.22l3.69-42.18a3.58,3.58,0,0,1,3.5-3.22h49a2.9,2.9,0,0,1,2.93,3.22l-3.69,42.18A3.58,3.58,0,0,1,230.13,207.12Z" style="fill: rgb(64, 123, 255); transform-origin: 207.751px 182.81px;" id="el4higcwlphmt" class="animable"></path><g id="elo6uu3sfl1w"><path d="M230.13,207.12h-49a2.91,2.91,0,0,1-2.94-3.22l3.69-42.18a3.58,3.58,0,0,1,3.5-3.22h49a2.9,2.9,0,0,1,2.93,3.22l-3.69,42.18A3.58,3.58,0,0,1,230.13,207.12Z" style="fill: rgb(255, 255, 255); opacity: 0.4; transform-origin: 207.751px 182.81px;" class="animable"></path></g><g id="elh5a8gjyocy"><path d="M230.31,205.12a1.35,1.35,0,0,0,1.32-1.22l3.69-42.18a1.1,1.1,0,0,0-1.11-1.22h-49a1.36,1.36,0,0,0-1.33,1.22L180.2,203.9a1.1,1.1,0,0,0,1.11,1.22Z" style="fill: rgb(255, 255, 255); opacity: 0.7; transform-origin: 207.76px 182.81px;" class="animable"></path></g><path d="M196.26,180.32l-16,23.16,0,.42a1.1,1.1,0,0,0,1.11,1.22h27.76Z" style="fill: rgb(64, 123, 255); transform-origin: 194.692px 192.72px;" id="ellanavr5zw7m" class="animable"></path><g id="el7kyorpx4no8"><path d="M196.26,180.32l-16,23.16,0,.42a1.1,1.1,0,0,0,1.11,1.22h27.76Z" style="fill: rgb(255, 255, 255); opacity: 0.3; transform-origin: 194.692px 192.72px;" class="animable"></path></g><path d="M231.77,202.29l-13.41-25.47-19.86,28.3h31.81a1.35,1.35,0,0,0,1.32-1.22Z" style="fill: rgb(64, 123, 255); transform-origin: 215.135px 190.97px;" id="elqpnlpc9mv" class="animable"></path><path d="M213.18,172.32a5,5,0,0,1-4.89,4.5,4.06,4.06,0,0,1-4.11-4.5,5,5,0,0,1,4.89-4.51A4.06,4.06,0,0,1,213.18,172.32Z" style="fill: rgb(64, 123, 255); transform-origin: 208.681px 172.315px;" id="el24dbqkdippw" class="animable"></path><g id="elidgfi9ig1sp"><path d="M213.18,172.32a5,5,0,0,1-4.89,4.5,4.06,4.06,0,0,1-4.11-4.5,5,5,0,0,1,4.89-4.51A4.06,4.06,0,0,1,213.18,172.32Z" style="fill: rgb(255, 255, 255); opacity: 0.4; transform-origin: 208.681px 172.315px;" class="animable"></path></g><polygon points="90.9 377.37 85.92 392.13 93.55 395.25 99.52 381.63 90.9 377.37" style="fill: rgb(185, 121, 100); transform-origin: 92.72px 386.31px;" id="elh3jhjmafv4q" class="animable"></polygon><path d="M96.29,394.88a.25.25,0,0,1-.12-.23.21.21,0,0,1,.17-.18c.16,0,3.76-.84,5.1,0a1.14,1.14,0,0,1,.51.69.82.82,0,0,1-.26.91c-.51.36-1.7.21-2.79-.13A16.45,16.45,0,0,1,96.29,394.88Zm.76-.07c1.57.7,3.79,1.37,4.37.93.08-.06.18-.16.1-.47a.57.57,0,0,0-.32-.42,1.46,1.46,0,0,0-.38-.17A10,10,0,0,0,97.05,394.81Z" style="fill: rgb(64, 123, 255); transform-origin: 99.0828px 395.187px;" id="ely1e1sm92ly" class="animable"></path><path d="M96.18,394.83a.22.22,0,0,1,0-.22c0-.1,1-2.4,2.41-3a1.65,1.65,0,0,1,1.27,0c.55.23.64.58.59.82-.12,1.05-2.82,2.3-4,2.44a.1.1,0,0,1-.09,0A.19.19,0,0,1,96.18,394.83ZM99.57,392a1.16,1.16,0,0,0-.8,0,5.1,5.1,0,0,0-2,2.33c1.29-.31,3.13-1.37,3.26-2,0-.06,0-.22-.34-.36l-.12,0Z" style="fill: rgb(64, 123, 255); transform-origin: 98.3062px 393.182px;" id="elfrmtx93wyzr" class="animable"></path><path d="M95.77,393.37l-9.58-3a.81.81,0,0,0-.94.37L81.11,398a1.34,1.34,0,0,0,.49,1.84,1.23,1.23,0,0,0,.26.12c3.47,1,6.6,1.76,10.9,3.1,5.08,1.56,3.6,1.77,9.54,3.7,3.58,1.16,5.5-2.73,4-3.4-6.71-3-6.78-5.36-8.7-8.69A3.22,3.22,0,0,0,95.77,393.37Z" style="fill: rgb(38, 50, 56); transform-origin: 93.87px 398.654px;" id="elww6qn6zv78" class="animable"></path><g id="eli5ltewe9k7"><polygon points="88.51 384.45 96.51 388.49 99.52 381.63 90.9 377.37 88.51 384.45" style="fill: rgb(38, 50, 56); opacity: 0.2; transform-origin: 94.015px 382.93px;" class="animable"></polygon></g><path d="M124.72,240.85s-10.75,8.21-8.45,33.93c.22,2.38,1,4.87,1,7.59,0,1.81-.5,3.08-1.09,7.15-.86,5.92-2.44,28-4.11,30.87s-2.35,2.36-7,10.28c-5,8.52-11.5,23.46-16.53,48.78a28.2,28.2,0,0,0,11.24,4.71s27.47-43.32,33.31-59.45c5.23-14.43,11.46-60.48,11.46-60.48l.5-20Z" style="fill: rgb(64, 123, 255); transform-origin: 116.795px 312.505px;" id="elx4pcwuoqut" class="animable"></path><g id="el1az2jhphgc7"><path d="M136.48,274.78H128.7s-2.56,24.48,5.9,44.9c.88-3.28,1.77-7.21,2.64-11.46l3.37-21.56c-.48-3.64-.85-6.42-.91-6.6C139.53,279.49,136.48,274.78,136.48,274.78Z" style="opacity: 0.1; transform-origin: 134.473px 297.23px;" class="animable"></path></g><polygon points="135.2 383.31 135.25 399 144.1 398.41 145.46 383.31 135.2 383.31" style="fill: rgb(185, 121, 100); transform-origin: 140.33px 391.155px;" id="elllny14uyyp" class="animable"></polygon><path d="M145.12,398.14a.21.21,0,0,1-.18-.17.21.21,0,0,1,.1-.23c.14-.08,3.27-2,4.82-1.66a1.17,1.17,0,0,1,.71.48.84.84,0,0,1,.05.95,4,4,0,0,1-2.68.79A15.65,15.65,0,0,1,145.12,398.14Zm.7-.31c1.71.15,4,.05,4.43-.56.06-.08.11-.21-.06-.48a.6.6,0,0,0-.44-.29,1.39,1.39,0,0,0-.41,0A9.7,9.7,0,0,0,145.82,397.83Z" style="fill: rgb(64, 123, 255); transform-origin: 147.839px 397.175px;" id="elux3jwmx66k" class="animable"></path><path d="M145,398.14a.24.24,0,0,1-.11-.2c0-.11.17-2.6,1.3-3.6a1.61,1.61,0,0,1,1.2-.42c.6,0,.8.34.83.59.23,1-1.9,3.09-3,3.62a.14.14,0,0,1-.09,0A.19.19,0,0,1,145,398.14Zm2.26-3.8a1.12,1.12,0,0,0-.74.3,5.08,5.08,0,0,0-1.12,2.86c1.11-.71,2.5-2.32,2.42-2.94,0-.06-.05-.22-.44-.24l-.12,0Z" style="fill: rgb(64, 123, 255); transform-origin: 146.564px 396.032px;" id="elcmm85cpahmk" class="animable"></path><path d="M144.14,396.89l-10,.36a.81.81,0,0,0-.76.66l-1.52,8.22a1.34,1.34,0,0,0,1.06,1.57,1.43,1.43,0,0,0,.29,0c3.61-.2,6.81-.51,11.31-.66,5.31-.19,4,.49,10.23.36,3.77-.09,4.3-4.39,2.7-4.54-7.33-.66-8.17-2.84-11.08-5.35A3.22,3.22,0,0,0,144.14,396.89Z" style="fill: rgb(38, 50, 56); transform-origin: 145.068px 402.291px;" id="eli7baajpynq9" class="animable"></path><g id="el7yo4epw4odg"><polygon points="135.23 391.43 144.75 391.23 145.46 383.31 135.2 383.31 135.23 391.43" style="fill: rgb(38, 50, 56); opacity: 0.2; transform-origin: 140.33px 387.37px;" class="animable"></polygon></g><path d="M130.71,238s-10.73,14.21-2.78,42l9,40.59s-8.54,18.46-4,67.16a41,41,0,0,0,13.24-.3s10-51.43,11.51-68.8c1.67-19.14.67-76.83.67-76.83Z" style="fill: rgb(64, 123, 255); transform-origin: 141.822px 313.074px;" id="elwra922egdcq" class="animable"></path><path d="M137.19,191.94s-1.66-7.1,9-4,9.76,9.17,9.76,9.17Z" style="fill: rgb(38, 50, 56); transform-origin: 146.533px 192.133px;" id="el6xcv9o91vnd" class="animable"></path><g id="eloq87yq3u3s"><path d="M137.19,191.94s-1.66-7.1,9-4,9.76,9.17,9.76,9.17Z" style="opacity: 0.4; transform-origin: 146.533px 192.133px;" class="animable"></path></g><path d="M163.63,209.7c0,2.49-1,6.09-2,10.12-.46,1.91-.88,3.9-1.16,5.92-1.51,11-2,22.59-2,22.59a43.86,43.86,0,0,1-34.34-6.81s4.19-3.55,3.33-28.14c-.39-11.08-4.39-24.25,13.92-22.18,15.46,1.75,20.66,6.55,21.91,14.06,0,.09,0,.19,0,.29l.09.7A29.3,29.3,0,0,1,163.63,209.7Z" style="fill: rgb(38, 50, 56); transform-origin: 143.88px 220.16px;" id="elv62umlaiuzg" class="animable"></path><g id="elei5hv18l1l9"><path d="M163.63,209.7c0,2.49-1,6.09-2,10.12-4.18-5-8.37-14.45-8.37-14.45l3.45-5.08,6.08,2.83a18,18,0,0,1,.5,2.14c0,.09,0,.19,0,.29l.09.7A29.3,29.3,0,0,1,163.63,209.7Z" style="opacity: 0.4; transform-origin: 158.445px 210.055px;" class="animable"></path></g><path d="M170,205.36s6,5.92,8.37,8.3l20.74-6.22h0a5.42,5.42,0,0,1,4-4.56l1.46-.38,3.12-.86a3.45,3.45,0,0,1,3.32.87h0a3.42,3.42,0,0,1,.7,3.88h0a8.5,8.5,0,0,1-6.8,4.87l-2.94.31s-18.51,10.11-24.47,9.55-13.79-7.73-13.79-7.73Z" style="fill: rgb(185, 121, 100); transform-origin: 187.87px 211.331px;" id="ell2tt8jywazm" class="animable"></path><path d="M155.1,194.59c5.12.75,10.35,4.82,18.47,12a24.87,24.87,0,0,1-8.59,9.92s-4.73-2.07-10.37-9.24C147.79,198.59,152,194.13,155.1,194.59Z" style="fill: rgb(38, 50, 56); transform-origin: 162.256px 205.534px;" id="elqsdepkw6wrn" class="animable"></path></g><defs>     <filter id="active" height="200%">         <feMorphology in="SourceAlpha" result="DILATED" operator="dilate" radius="2"></feMorphology>                <feFlood flood-color="#32DFEC" flood-opacity="1" result="PINK"></feFlood>        <feComposite in="PINK" in2="DILATED" operator="in" result="OUTLINE"></feComposite>        <feMerge>            <feMergeNode in="OUTLINE"></feMergeNode>            <feMergeNode in="SourceGraphic"></feMergeNode>        </feMerge>    </filter>    <filter id="hover" height="200%">        <feMorphology in="SourceAlpha" result="DILATED" operator="dilate" radius="2"></feMorphology>                <feFlood flood-color="#ff0000" flood-opacity="0.5" result="PINK"></feFlood>        <feComposite in="PINK" in2="DILATED" operator="in" result="OUTLINE"></feComposite>        <feMerge>            <feMergeNode in="OUTLINE"></feMergeNode>            <feMergeNode in="SourceGraphic"></feMergeNode>        </feMerge>            <feColorMatrix type="matrix" values="0   0   0   0   0                0   1   0   0   0                0   0   0   0   0                0   0   0   1   0 "></feColorMatrix>    </filter></defs></svg>